<svg xmlns="http://www.w3.org/2000/svg" viewBox="0 0 400 320"><ellipse cx="202" cy="277" rx="85" ry="13" fill="#70846520"/><path d="M180 253l-24-119m40 119l5-142m-2 132l41-111" stroke="#758368" stroke-width="8"/><path d="M95 138l103 128 110-130-108 45z" fill="#d9c8a5"/><path d="M139 195l59 71 54-70-54 26z" fill="#eee1c7"/><g fill="#c58278"><circle cx="141" cy="94" r="29"/><circle cx="119" cy="113" r="24"/><circle cx="159" cy="119" r="26"/><circle cx="151" cy="78" r="22"/></g><g fill="#efe0b7"><circle cx="207" cy="72" r="30"/><circle cx="187" cy="91" r="25"/><circle cx="224" cy="99" r="26"/><circle cx="226" cy="73" r="24"/></g><g fill="#ad5e4c"><circle cx="262" cy="114" r="27"/><circle cx="242" cy="134" r="22"/><circle cx="279" cy="141" r="24"/></g><path d="M201 223l-34 10 35 9 31-15" fill="#9e654e"/></svg>
